#!OML:ASF F:\VICON\USERDATA\INSTALL\rory3\rory3.ASF
:FULLY-SPECIFIED
:DEGREES
923
root -0.765795 18.2217 1.33888 -0.687948 -0.718037 360.026
lowerback 7.93553 -0.0623414 -1.05536
upperback -0.146572 -0.169555 0.254138
thorax -4.60128 -0.0565797 0.877092
lowerneck -17.0073 -10.2594 -15.8916
upperneck 27.2257 -13.6843 11.5845
head 14.1316 -6.25651 4.77672
rclavicle -1.65861e-015 1.3741e-014
rhumerus -33.174 -8.06014 -84.8293
rradius 30.517
rwrist 6.88363
rhand -15.0752 8.46373
rfingers 7.12502
rthumb 11.0922 -21.2231
lclavicle -1.65861e-015 1.3741e-014
lhumerus -37.8456 5.0415 84.296
lradius 32.9998
lwrist -5.43962
lhand -18.2803 23.0612
lfingers 7.12502
lthumb 7.99977 52.8898
rfemur -4.19365 -2.64676 22.0508
rtibia 20.837
rfoot -9.5002 -12.7808
rtoes -2.44754
lfemur 2.48324 -0.228513 -21.3226
ltibia 6.94677
lfoot -3.67595 -0.0979211
ltoes -6.8015
924
root -0.754384 18.2199 1.33665 -0.651169 -0.849612 360.08
lowerback 7.91114 -0.0483889 -1.08948
upperback -0.179119 -0.156518 0.20118
thorax -4.62183 -0.049678 0.839785
lowerneck -16.8869 -10.2421 -15.863
upperneck 27.1919 -13.7071 11.6527
head 14.099 -6.26081 4.79869
rclavicle -2.17716e-015 7.98051e-016
rhumerus -33.1938 -8.03955 -84.8838
rradius 30.6208
rwrist 6.73723
rhand -14.9486 8.2677
rfingers 7.12502
rthumb 11.2143 -21.4126
lclavicle -2.17716e-015 7.98051e-016
lhumerus -37.8438 5.0983 84.1387
lradius 33.1554
lwrist -6.78495
lhand -16.3624 24.4184
lfingers 7.12502
lthumb 9.85058 54.168
rfemur -4.30087 -2.62772 21.935
rtibia 20.9575
rfoot -9.60782 -12.6291
rtoes -2.27579
lfemur 2.67281 -0.0914207 -21.4
ltibia 6.52505
lfoot -3.52337 -0.207278
ltoes -6.7738
925
root -0.738881 18.2159 1.33729 -0.610792 -0.980409 360.287
lowerback 7.83331 -0.0452471 -1.2472
upperback -0.191795 -0.170642 0.103167
thorax -4.5908 -0.0542741 0.828194
lowerneck -16.8177 -10.1996 -15.7903
upperneck 27.1698 -13.6852 11.6809
head 14.0666 -6.24402 4.80512
rclavicle 1.15311e-015 1.17283e-014
rhumerus -33.2362 -8.01324 -84.958
rradius 30.7725
rwrist 6.56036
rhand -14.9361 8.16333
rfingers 7.12502
rthumb 11.2264 -21.5163
lclavicle 1.15311e-015 1.17283e-014
lhumerus -37.7891 5.2776 84.0108
lradius 33.1646
lwrist -7.39932
lhand -15.7697 24.9508
lfingers 7.12502
lthumb 10.4223 54.6725
rfemur -4.40124 -2.74004 21.6141
rtibia 21.0874
rfoot -9.70535 -12.3583
rtoes -2.37624
lfemur 2.86905 0.0478232 -21.6707
ltibia 6.10312
lfoot -3.37922 -0.279557
ltoes -7.01816
926
root -0.725877 18.2159 1.33405 -0.507891 -1.04763 360.486
lowerback 7.77982 -0.0716846 -1.46818
upperback -0.230687 -0.227977 0.0539206
thorax -4.59935 -0.0777957 0.907912
lowerneck -16.9121 -10.1966 -15.7426
upperneck 27.2469 -13.6716 11.6228
head 14.1078 -6.23647 4.77537
rclavicle -4.09217e-015 3.34207e-015
rhumerus -33.2805 -7.96033 -84.9949
rradius 30.889
rwrist 6.52539
rhand -15.2052 8.24395
rfingers 7.12502
rthumb 10.9669 -21.4496
lclavicle -4.09217e-015 3.34207e-015
lhumerus -37.7428 5.07274 84.1391
lradius 33.2065
lwrist -7.1669
lhand -15.8245 25.46
lfingers 7.12502
lthumb 10.3695 55.1843
rfemur -4.59412 -2.80064 21.3295
rtibia 21.2284
rfoot -9.81826 -12.227
rtoes -2.32637
lfemur 2.99839 0.120612 -21.9198
ltibia 5.61979
lfoot -3.14332 -0.380016
ltoes -6.91899
927
root -0.715808 18.2163 1.33111 -0.431014 -1.15339 360.532
lowerback 7.76282 -0.0806664 -1.54129
upperback -0.289046 -0.247539 0.0397625
thorax -4.64989 -0.0851789 0.936671
lowerneck -16.9447 -10.2238 -15.6986
upperneck 27.3497 -13.7038 11.5304
head 14.1521 -6.25569 4.72484
rclavicle 5.07949e-015 -6.06293e-015
rhumerus -33.3957 -7.98408 -85.0268
rradius 30.9881
rwrist 6.57852
rhand -15.4791 8.48447
rfingers 7.12502
rthumb 10.7027 -21.2229
lclavicle 5.07949e-015 -6.06293e-015
lhumerus -37.7646 4.88208 84.2286
lradius 33.2232
lwrist -7.12228
lhand -15.8488 25.6472
lfingers 7.12502
lthumb 10.346 55.3727
rfemur -4.76632 -2.79332 21.244
rtibia 21.3353
rfoot -9.85846 -12.191
rtoes -2.86916
lfemur 3.10984 0.229185 -21.986
ltibia 5.23283
lfoot -2.9458 -0.465274
ltoes -6.76703
928
root -0.704462 18.2169 1.33348 -0.412064 -1.2958 360.556
lowerback 7.73885 -0.0738095 -1.55649
upperback -0.327794 -0.241037 0.0121155
thorax -4.67702 -0.081489 0.915762
lowerneck -16.8125 -10.2142 -15.754
upperneck 27.3208 -13.7252 11.6303
head 14.1298 -6.26485 4.77453
rclavicle -2.01968e-015 -4.24902e-015
rhumerus -33.5437 -8.11097 -85.017
rradius 31.0852
rwrist 6.63312
rhand -15.4518 8.90647
rfingers 7.12502
rthumb 10.729 -20.7996
lclavicle -2.01968e-015 -4.24902e-015
lhumerus -37.792 4.78416 84.2578
lradius 33.1947
lwrist -7.1654
lhand -15.9219 25.6681
lfingers 7.12502
lthumb 10.2755 55.3971
rfemur -4.82632 -2.82433 21.1602
rtibia 21.3792
rfoot -9.86026 -12.0582
rtoes -3.36751
lfemur 3.1714 0.373996 -22.0409
ltibia 5.11083
lfoot -2.91106 -0.526926
ltoes -6.12374
929
root -0.693395 18.2173 1.33409 -0.392227 -1.43125 360.481
lowerback 7.78374 -0.0954737 -1.51998
upperback -0.361209 -0.266272 0.040609
thorax -4.73649 -0.0938373 0.928044
lowerneck -16.7784 -10.2008 -15.8048
upperneck 27.2983 -13.7147 11.6939
head 14.1217 -6.25995 4.81199
rclavicle 1.46604e-015 -9.26834e-015
rhumerus -33.6128 -8.15824 -84.9805
rradius 31.1562
rwrist 6.69421
rhand -15.2463 9.22823
rfingers 7.12502
rthumb 10.9272 -20.4674
lclavicle 1.46604e-015 -9.26834e-015
lhumerus -37.8321 4.86703 84.2406
lradius 33.2485
lwrist -7.22208
lhand -15.94 25.8759
lfingers 7.12502
lthumb 10.2581 55.6057
rfemur -4.8415 -2.74269 21.1928
rtibia 21.3926
rfoot -9.8731 -11.9467
rtoes -3.07833
lfemur 3.15063 0.508909 -21.9873
ltibia 5.13484
lfoot -2.95162 -0.551855
ltoes -5.98626
930
root -0.684251 18.2171 1.33224 -0.374389 -1.53409 360.38
lowerback 7.80473 -0.134919 -1.49069
upperback -0.337932 -0.313913 0.0899286
thorax -4.72261 -0.11776 0.968392
lowerneck -16.9773 -10.2037 -15.7654
upperneck 27.3975 -13.6899 11.6275
head 14.1931 -6.24498 4.77961
rclavicle 2.65176e-015 1.1281e-014
rhumerus -33.4823 -8.19474 -84.9642
rradius 31.1097
rwrist 6.7965
rhand -14.9594 9.19998
rfingers 7.12502
rthumb 11.2039 -20.4809
lclavicle 2.65176e-015 1.1281e-014
lhumerus -37.7998 4.97802 84.2246
lradius 33.3586
lwrist -7.33989
lhand -16.0598 25.8399
lfingers 7.12502
lthumb 10.1425 55.5754
rfemur -4.86766 -2.59196 21.2796
rtibia 21.4104
rfoot -9.9879 -12.0143
rtoes -2.71648
lfemur 3.12596 0.610429 -21.8885
ltibia 5.14055
lfoot -2.97552 -0.56834
ltoes -5.95901
931
root -0.673977 18.216 1.33373 -0.371593 -1.61209 360.402
lowerback 7.7439 -0.172628 -1.52019
upperback -0.291939 -0.366113 0.0761158
thorax -4.63885 -0.144006 0.976198
lowerneck -17.1553 -10.1999 -15.6691
upperneck 27.5033 -13.6592 11.5084
head 14.2516 -6.22875 4.71816
rclavicle -1.50564e-015 3.72721e-016
rhumerus -33.3393 -8.12678 -85.0207
rradius 31.0322
rwrist 6.81488
rhand -14.8523 8.90285
rfingers 7.12502
rthumb 11.3072 -20.7724
lclavicle -1.50564e-015 3.72721e-016
lhumerus -37.7053 5.01768 84.2077
lradius 33.3666
lwrist -7.36837
lhand -16.3307 24.8686
lfingers 7.12502
lthumb 9.88114 54.6167
rfemur -4.88901 -2.62139 21.2141
rtibia 21.4296
rfoot -10.0491 -11.9889
rtoes -2.9
lfemur 3.109 0.688766 -21.9314
ltibia 5.20044
lfoot -3.0828 -0.573147
ltoes -5.57883
932
root -0.66147 18.2152 1.33527 -0.378554 -1.73655 360.453
lowerback 7.70459 -0.178117 -1.53767
upperback -0.28981 -0.376159 0.0371662
thorax -4.61435 -0.149248 0.946509
lowerneck -17.1201 -10.2057 -15.6455
upperneck 27.4965 -13.6692 11.4735
head 14.2372 -6.23656 4.69839
rclavicle 1.61668e-015 -4.24902e-015
rhumerus -33.2493 -8.15896 -85.03
rradius 30.8532
rwrist 6.8599
rhand -14.9288 8.84363
rfingers 7.12502
rthumb 11.2334 -20.8356
lclavicle 1.61668e-015 -4.24902e-015
lhumerus -37.6434 4.97211 84.2126
lradius 33.3079
lwrist -7.31919
lhand -16.4418 23.8691
lfingers 7.12502
lthumb 9.77392 53.6223
rfemur -4.90434 -2.74158 21.0938
rtibia 21.4398
rfoot -10.0635 -11.7898
rtoes -3.36738
lfemur 3.08485 0.814276 -22.0238
ltibia 5.30628
lfoot -3.21212 -0.584484
ltoes -5.43526
933
root -0.648667 18.216 1.33623 -0.329292 -1.93568 360.408
lowerback 7.65617 -0.163722 -1.48916
upperback -0.330439 -0.352108 0.0366296
thorax -4.63033 -0.138158 0.915761
lowerneck -17.0581 -10.1984 -15.6444
upperneck 27.4945 -13.671 11.4774
head 14.2235 -6.23975 4.70147
rclavicle 1.12438e-015 3.8763e-015
rhumerus -33.2581 -8.27461 -85.0006
rradius 30.7577
rwrist 6.9613
rhand -14.9847 9.09955
rfingers 7.12502
rthumb 11.1795 -20.5826
lclavicle 1.12438e-015 3.8763e-015
lhumerus -37.7 4.74298 84.2891
lradius 33.4606
lwrist -7.08049
lhand -16.2679 23.9066
lfingers 7.12502
lthumb 9.94173 53.6518
rfemur -4.98656 -2.74362 21.0878
rtibia 21.4488
rfoot -10.0998 -11.6147
rtoes -3.92187
lfemur 3.02729 1.01224 -22.0139
ltibia 5.34953
lfoot -3.29882 -0.614577
ltoes -5.84244
